# xmcd
#
# Track frame offsets: 
#        150
#        16709
#        34899
#        44602
#        61144
#        84699
#        114834
#        128525
#        150209
#        163688
#        184484
#        204500
#        221390
#        240653
#        255387
#        277904
#        293830
#
# Disc length: 4201 seconds
#
# Revision: 0
# Processed by: cddbd v1.5.2PL0 Copyright (c) Steve Scherf et al.
# Submitted via: ExactAudioCopy v0.95b4
#
DISCID=dd106711
DTITLE=Various Artist - A Walk On The Blues Side-CD2
DYEAR=2007
DGENRE=Blues
TTITLE0=White Cadillac - The Band
TTITLE1=Bold As Love - Joan Osborne
TTITLE2=I Need Your Love So Bad - Robert Palmer
TTITLE3=Watching The River Flow - Leon Russell
TTITLE4=Survivior - Robert Cray
TTITLE5=How Sweet It Is - Cissy Houston
TTITLE6=Believe I´m Gonna Make It - Joe Tex
TTITLE7=Tramped Underfoot - Eric Gales
TTITLE8=Bring It On Home (part.1) - Robert Lockwood Jr.
TTITLE9=Ventilator Blues - Clarence "Gatemouth" Brown
TTITLE10=A Touch Of Love - Francine Reed
TTITLE11=We Can Win - Edgar Winter
TTITLE12=Turtle Blues - Lynn Jordan
TTITLE13=It´s All Over Now - Bobby Womack
TTITLE14=People Get Ready - Slim and The Supreme Angels
TTITLE15=Trouble In Mind - Willie Kent
TTITLE16=Seeal Away - Alexis Korner and Robert Plant
EXTD=
EXTT0=
EXTT1=
EXTT2=
EXTT3=
EXTT4=
EXTT5=
EXTT6=
EXTT7=
EXTT8=
EXTT9=
EXTT10=
EXTT11=
EXTT12=
EXTT13=
EXTT14=
EXTT15=
EXTT16=
PLAYORDER=
